<?xml version="1.0" encoding="utf-8"?>
<!-- Generator: Adobe Illustrator 24.1.3, SVG Export Plug-In . SVG Version: 6.00 Build 0)  -->
<svg version="1.1" id="Ebene_1" xmlns="http://www.w3.org/2000/svg" xmlns:xlink="http://www.w3.org/1999/xlink" x="0px" y="0px"
	 viewBox="0 0 640 512" style="enable-background:new 0 0 640 512;" xml:space="preserve">
<path d="M608,64H32C14.3,64,0,78.3,0,96v320c0,17.7,14.3,32,32,32h160.2c25.2,0,48-14.8,58.4-37.7l27.7-61.6
	c7.9-17.5,24-28.6,41.7-28.6c17.7,0,33.8,11.1,41.7,28.6l27.7,61.6c10.3,23,33.2,37.7,58.4,37.7H608c17.7,0,32-14.3,32-32V96
	C640,78.3,625.7,64,608,64z M450,284H190c-35.3,0-64-28.7-64-64c0-35.4,28.7-64,64-64h260c35.3,0,64,28.6,64,64
	C514,255.3,485.3,284,450,284z"/>
</svg>
